TITLE ""
FILE "Step3_Track44.mp3" MP3
  TRACK 01 AUDIO
    TITLE "Step3_Track44_01"
    INDEX 01 00:00:00
  TRACK 02 AUDIO
    TITLE "Step3_Track44_02"
    INDEX 01 00:00:22
  TRACK 03 AUDIO
    TITLE "Step3_Track44_03"
    INDEX 01 00:01:72
  TRACK 04 AUDIO
    TITLE "Step3_Track44_04"
    INDEX 01 00:02:52
  TRACK 05 AUDIO
    TITLE "Step3_Track44_05"
    INDEX 01 00:03:52
  TRACK 06 AUDIO
    TITLE "Step3_Track44_06"
    INDEX 01 00:03:75
  TRACK 07 AUDIO
    TITLE "Step3_Track44_07"
    INDEX 01 00:05:70
  TRACK 08 AUDIO
    TITLE "Step3_Track44_08"
    INDEX 01 00:06:21
  TRACK 09 AUDIO
    TITLE "Step3_Track44_09"
    INDEX 01 00:07:18
  TRACK 10 AUDIO
    TITLE "Step3_Track44_10"
    INDEX 01 00:07:36
  TRACK 11 AUDIO
    TITLE "Step3_Track44_11"
    INDEX 01 00:09:39
  TRACK 12 AUDIO
    TITLE "Step3_Track44_12"
    INDEX 01 00:09:60
  TRACK 13 AUDIO
    TITLE "Step3_Track44_13"
    INDEX 01 00:10:54
  TRACK 14 AUDIO
    TITLE "Step3_Track44_14"
    INDEX 01 00:10:73
  TRACK 15 AUDIO
    TITLE "Step3_Track44_15"
    INDEX 01 00:13:54
  TRACK 16 AUDIO
    TITLE "Step3_Track44_16"
    INDEX 01 00:14:14
  TRACK 17 AUDIO
    TITLE "Step3_Track44_17"
    INDEX 01 00:15:08
  TRACK 18 AUDIO
    TITLE "Step3_Track44_18"
    INDEX 01 00:15:20
  TRACK 19 AUDIO
    TITLE "Step3_Track44_19"
    INDEX 01 00:17:11
  TRACK 20 AUDIO
    TITLE "Step3_Track44_20"
    INDEX 01 00:17:44
  TRACK 21 AUDIO
    TITLE "Step3_Track44_21"
    INDEX 01 00:18:36
  TRACK 22 AUDIO
    TITLE "Step3_Track44_22"
    INDEX 01 00:18:57
  TRACK 23 AUDIO
    TITLE "Step3_Track44_23"
    INDEX 01 00:20:23
  TRACK 24 AUDIO
    TITLE "Step3_Track44_24"
    INDEX 01 00:20:42
  TRACK 25 AUDIO
    TITLE "Step3_Track44_25"
    INDEX 01 00:21:44
  TRACK 26 AUDIO
    TITLE "Step3_Track44_26"
    INDEX 01 00:21:52
  TRACK 27 AUDIO
    TITLE "Step3_Track44_27"
    INDEX 01 00:24:09
  TRACK 28 AUDIO
    TITLE "Step3_Track44_28"
    INDEX 01 00:24:25
  TRACK 29 AUDIO
    TITLE "Step3_Track44_29"
    INDEX 01 00:25:28
  TRACK 30 AUDIO
    TITLE "Step3_Track44_30"
    INDEX 01 00:25:42
  TRACK 31 AUDIO
    TITLE "Step3_Track44_31"
    INDEX 01 00:28:13
  TRACK 32 AUDIO
    TITLE "Step3_Track44_32"
    INDEX 01 00:28:32
  TRACK 33 AUDIO
    TITLE "Step3_Track44_33"
    INDEX 01 00:29:12
  TRACK 34 AUDIO
    TITLE "Step3_Track44_34"
    INDEX 01 00:29:51
  TRACK 35 AUDIO
    TITLE "Step3_Track44_35"
    INDEX 01 00:32:12
  TRACK 36 AUDIO
    TITLE "Step3_Track44_36"
    INDEX 01 00:32:28
  TRACK 37 AUDIO
    TITLE "Step3_Track44_37"
    INDEX 01 00:33:31
  TRACK 38 AUDIO
    TITLE "Step3_Track44_38"
    INDEX 01 00:33:39
  TRACK 39 AUDIO
    TITLE "Step3_Track44_39"
    INDEX 01 00:35:44
  TRACK 40 AUDIO
    TITLE "Step3_Track44_40"
    INDEX 01 00:35:64
  TRACK 41 AUDIO
    TITLE "Step3_Track44_41"
    INDEX 01 00:36:59
  TRACK 42 AUDIO
    TITLE "Step3_Track44_42"
    INDEX 01 00:36:63
  TRACK 43 AUDIO
    TITLE "Step3_Track44_43"
    INDEX 01 00:38:72
